<svg width="173" height="42" viewBox="0 0 173 42" fill="none" xmlns="http://www.w3.org/2000/svg">
<rect width="173" height="42" fill="white"/>
<g clip-path="url(#clip0_135_328)">
<path d="M19.3586 35.5471C18.88 35.5942 18.3989 35.6174 17.9182 35.6174C17.4376 35.6174 16.9571 35.5942 16.4788 35.5471L17.095 29.2795H18.7415L19.3586 35.5471ZM16.5344 25.4788L13.6506 34.9846C13.1904 34.845 12.7375 34.6823 12.2932 34.4983C11.8493 34.3144 11.4144 34.1086 10.9905 33.8821L15.6721 25.1213L16.5344 25.4788ZM24.8469 33.8821C24.4227 34.1088 23.9867 34.3142 23.5422 34.4983C23.0982 34.6823 22.6457 34.845 22.1858 34.9846L19.301 25.4797L20.1643 25.1223L24.8469 33.8821ZM12.5872 27.4124L8.59204 32.2805C8.22016 31.9753 7.86384 31.6519 7.52368 31.3118C7.18386 30.9719 6.86078 30.6158 6.55591 30.2444L11.4231 26.2483L12.5872 27.4124ZM29.2805 30.2444C28.9753 30.6162 28.6516 30.9729 28.3118 31.3127C27.9719 31.6526 27.6158 31.9756 27.2444 32.2805L23.2483 27.4124L24.4124 26.2483L29.2805 30.2444ZM66.4983 16.4456C67.4998 16.4456 68.3351 16.613 69.1096 16.9114C69.8876 17.2285 70.5257 17.6577 71.0256 18.1985C71.5239 18.7393 72.0699 19.6722 72.0461 20.8098L68.8284 20.8284H68.7258C68.6229 20.2502 68.3638 19.8212 67.9514 19.5227C67.5358 19.2432 67.0564 19.095 66.5032 19.095C65.9845 19.095 65.5662 19.2071 65.2473 19.4495C64.9306 19.6917 64.7679 19.9899 64.7678 20.3254C64.7678 20.6239 64.8872 20.8669 65.1321 21.0344C65.3727 21.2206 65.7164 21.3702 66.1653 21.5002L68.2092 21.9661C69.056 22.171 69.7627 22.4129 70.3333 22.6926C70.9038 22.9537 71.365 23.3647 71.717 23.9055C72.0698 24.4649 72.2463 25.1919 72.2463 26.1057C72.2463 26.8701 72.0155 27.5797 71.5471 28.2327C71.0812 28.8857 70.4356 29.4079 69.6057 29.7991C68.7793 30.191 67.8473 30.3957 66.8118 30.3958C65.6759 30.3958 64.6647 30.2095 63.7864 29.8176H63.7805L63.4602 29.6643C62.7339 29.2931 62.1546 28.8237 61.7239 28.2688C61.2317 27.6344 60.7366 26.4227 60.7366 25.4153L63.9885 25.3967H64.0911C64.194 25.8814 64.3697 26.2925 64.6213 26.6096C64.8712 26.9266 65.1916 27.1688 65.5774 27.3176C65.965 27.4664 66.3741 27.5597 66.8059 27.5598C67.1842 27.5598 67.5223 27.4856 67.8157 27.3743C68.1082 27.2433 68.3347 27.094 68.4895 26.8704C68.6441 26.6655 68.7219 26.4232 68.7219 26.1624C68.7219 25.8265 68.6094 25.5655 68.384 25.3606C68.1587 25.1744 67.8249 25.006 67.3752 24.9133L64.8928 24.2971C64.257 24.1296 63.6789 23.9428 63.1604 23.6819C62.6434 23.4396 62.205 23.0661 61.8411 22.5627C61.4798 22.0594 61.2991 21.4063 61.2991 20.6233C61.2991 19.8402 61.5196 19.1306 61.9592 18.5159C62.3996 17.8818 63.0166 17.3783 63.8088 17.0051C64.6012 16.6319 65.4967 16.4456 66.4983 16.4456ZM133.23 16.4456C134.988 16.4456 136.367 16.8382 137.368 17.6213C138.368 18.4231 139.041 19.3927 139.384 20.5676C139.728 21.7425 139.833 22.9352 139.696 24.1848H130.069C130.13 24.7009 130.25 25.1584 130.436 25.5657H130.439C130.713 26.1812 131.117 26.647 131.641 26.9641C132.169 27.2811 132.783 27.4485 133.49 27.4485C134.198 27.4485 134.947 27.2991 135.454 27.0569V27.0579C136.004 26.7968 136.488 26.2182 136.613 25.5286H139.718C139.718 27.1322 138.617 28.6064 137.538 29.3147C136.461 30.0417 135.075 30.3957 133.387 30.3958C132.095 30.3958 130.925 30.0972 129.881 29.5002C128.837 28.9033 128.026 28.0641 127.449 27.0012C126.871 25.9385 126.583 24.7263 126.583 23.4026C126.583 22.0787 126.869 20.8844 127.436 19.8215C128.006 18.7587 128.793 17.938 129.802 17.3411C130.81 16.7442 131.954 16.4456 133.23 16.4456ZM95.4807 24.7024C95.4807 25.2616 95.5773 25.7461 95.7659 26.1379C95.9563 26.5299 96.2417 26.8472 96.6184 27.053C96.995 27.2577 97.437 27.3508 97.9368 27.3508C98.3865 27.3508 98.8073 27.2387 99.2043 26.9778C99.5997 26.7355 99.9378 26.3809 100.214 25.9524C100.488 25.5239 100.669 25.0382 100.756 24.4788V16.7063H104.278V30.134H101.485L100.76 28.5452C100.332 29.1233 99.7941 29.5894 99.1565 29.9065C98.5188 30.2237 97.8115 30.3909 97.0334 30.3909C96.0848 30.3908 95.227 30.186 94.4602 29.7942C93.6916 29.3844 93.083 28.8247 92.634 28.0969C92.1868 27.3887 91.9612 26.5493 91.9612 25.5979V16.7014H95.4807V24.7024ZM78.1663 16.7053H81.3235V19.634H78.1663V25.7317C78.1663 26.1977 78.5654 26.5901 79.0374 26.5901L79.0383 26.592H81.3245V30.136H79.0383C76.6065 30.136 74.6467 28.1578 74.6467 25.7336V19.635H72.4475V16.7073C73.1898 16.7073 73.7214 16.6324 74.0403 16.4836C74.3591 16.334 74.5728 16.0359 74.6868 15.6252C74.7981 15.1959 74.8547 14.5064 74.8547 13.5364H78.1663V16.7053ZM159.281 13.5364V16.7053H162.438V19.634H159.281V25.7317C159.281 26.1977 159.68 26.5901 160.152 26.5901L160.153 26.592H162.439V30.136H160.153C157.721 30.136 155.76 28.1578 155.76 25.7336V19.635H153.562V16.7073C154.304 16.7073 154.836 16.6324 155.155 16.4836C155.473 16.334 155.687 16.0359 155.801 15.6252C155.912 15.1959 155.969 14.5064 155.969 13.5364H159.281ZM89.9368 16.6624C90.367 16.6624 90.6533 16.6817 90.7893 16.7004V20.094C89.8064 19.9069 88.9761 19.9634 88.3069 20.2805C87.6353 20.579 87.1207 21.0764 86.7678 21.6545C86.5127 22.072 86.3192 22.5181 86.1848 22.9866V30.135H82.6672V16.7073H86.1848V18.8372C86.3294 18.5948 86.4966 18.3671 86.6887 18.1545H86.6897C87.1293 17.6699 87.6389 17.2964 88.217 17.0354C88.7213 16.8071 89.2225 16.6933 89.7219 16.6682L89.9368 16.6624ZM45.9641 30.134H42.2131V11.4846H45.9641V30.134ZM54.6184 16.4446C55.5672 16.4446 56.4248 16.6504 57.1917 17.0422C57.9603 17.4521 58.5689 18.0116 59.0178 18.7395C59.4649 19.4477 59.6907 20.2872 59.6907 21.2385V30.134H56.1721V22.1331C56.1721 21.5738 56.0747 21.0894 55.886 20.6975C55.6956 20.3056 55.4109 19.9892 55.0344 19.7834C54.6577 19.5785 54.2151 19.4846 53.7151 19.4846C53.2654 19.4846 52.8445 19.5968 52.4475 19.8577C52.0521 20.1 51.7141 20.4555 51.4377 20.884C51.1642 21.3123 50.9833 21.7976 50.8958 22.3567V30.134H47.3743V16.7063H50.1672L50.8918 18.2913C51.3204 17.7131 51.8586 17.2471 52.4963 16.9299C53.134 16.6129 53.8405 16.4446 54.6184 16.4446ZM120.874 16.4641C121.771 16.4641 122.581 16.6502 123.305 17.0422C124.028 17.4342 124.594 17.9748 125 18.6643C125.405 19.3734 125.608 20.1568 125.608 21.0334V30.134H122.09V22.1145C122.09 21.1453 121.887 20.4547 121.483 20.0627C121.078 19.6708 120.567 19.4847 119.944 19.4846C119.32 19.4846 118.736 19.7459 118.236 20.2678C117.736 20.7899 117.424 21.4805 117.305 22.301V30.134H113.785V22.1145C113.785 21.1453 113.586 20.4547 113.189 20.0627C112.793 19.6708 112.284 19.4846 111.661 19.4846C110.988 19.4847 110.408 19.7645 109.916 20.3049C109.422 20.8643 109.116 21.5363 108.998 22.3567V30.134H105.481V16.7063H109V18.3098C109.431 17.7503 109.968 17.3029 110.606 16.967C111.243 16.6126 111.968 16.4642 112.778 16.4641C113.708 16.4641 114.514 16.6502 115.196 17.0422C115.878 17.4342 116.399 17.9746 116.76 18.7014C117.21 17.9371 117.795 17.3587 118.521 17.0042C119.246 16.6309 120.029 16.4641 120.874 16.4641ZM147.999 16.4446C148.948 16.4446 149.806 16.6503 150.573 17.0422C151.341 17.4521 151.95 18.0116 152.399 18.7395C152.846 19.4477 153.072 20.2872 153.072 21.2385V30.134H149.552V22.1331C149.552 21.5738 149.456 21.0894 149.267 20.6975C149.076 20.3055 148.791 19.9892 148.414 19.7834C148.038 19.5786 147.596 19.4846 147.096 19.4846C146.646 19.4846 146.225 19.5968 145.828 19.8577C145.433 20.1 145.095 20.4555 144.819 20.884C144.545 21.3124 144.364 21.7976 144.277 22.3567V30.134H140.755V16.7063H143.547L144.273 18.2913C144.701 17.7132 145.239 17.2471 145.876 16.9299C146.514 16.6128 147.221 16.4446 147.999 16.4446ZM167.452 30.134H163.702V11.4846H167.452V30.134ZM13.7151 23.1643L4.95435 27.8469C4.7277 27.4228 4.52215 26.9875 4.33813 26.5432C4.15406 26.099 3.99243 25.6458 3.85278 25.1858L13.3577 22.302L13.7151 23.1643ZM31.9846 25.1858C31.845 25.6462 31.6824 26.0997 31.4983 26.5442C31.3144 26.9881 31.1086 27.4231 30.8821 27.8469L22.1223 23.1653L22.4797 22.302L31.9846 25.1858ZM9.55688 20.095V21.7415L3.28931 22.3586C3.24223 21.8801 3.21901 21.3988 3.21899 20.9182C3.21899 20.4374 3.24222 19.9562 3.28931 19.4778L9.55688 20.095ZM32.5295 19.4749C32.5768 19.9535 32.6008 20.4346 32.6008 20.9153C32.6008 21.3959 32.5766 21.8764 32.5295 22.3547L26.262 21.7385V20.092L32.5295 19.4749ZM133.23 19.094C132.539 19.094 131.952 19.2612 131.469 19.5969H131.47C130.987 19.9328 130.625 20.4177 130.383 21.0706C130.307 21.2704 130.244 21.4825 130.193 21.7053H136.024C135.991 21.202 135.848 20.7545 135.608 20.3625C135.367 19.9707 135.043 19.6535 134.638 19.4299C134.233 19.2063 133.761 19.094 133.23 19.094ZM30.8821 13.9895C31.1087 14.4136 31.3143 14.8489 31.4983 15.2932C31.6824 15.7374 31.845 16.1907 31.9846 16.6506L22.4797 19.5354L22.1223 18.6721L30.8821 13.9895ZM13.7151 18.6711L13.3577 19.5344L3.85278 16.6506C3.99242 16.1903 4.15407 15.7367 4.33813 15.2922C4.52205 14.8482 4.72777 14.4134 4.95435 13.9895L13.7151 18.6711ZM22.1868 6.85181C22.647 6.9914 23.0999 7.15415 23.5442 7.33813C23.9882 7.52206 24.4239 7.72776 24.8479 7.95435L20.1663 16.7151L19.303 16.3577L22.1868 6.85181ZM16.5354 16.3567L15.6721 16.7141L10.9905 7.95435C11.4146 7.7277 11.8499 7.52215 12.2942 7.33813C12.7382 7.15411 13.1908 6.99143 13.6506 6.85181L16.5354 16.3567ZM12.5881 14.4241L11.4241 15.5881L6.55591 11.593C6.86116 11.2211 7.18443 10.8639 7.52466 10.5237C7.86462 10.1837 8.22147 9.86088 8.59302 9.55591L12.5881 14.4241ZM27.2444 9.55591C27.6164 9.86118 27.9735 10.1844 28.3137 10.5247C28.6537 10.8646 28.9765 11.2215 29.2815 11.593L24.4133 15.5881L23.2493 14.4241L27.2444 9.55591ZM17.9192 6.21899C18.3999 6.219 18.8803 6.24222 19.3586 6.28931L18.7415 12.5569H17.0959L16.4788 6.28931C16.9573 6.24224 17.4385 6.21899 17.9192 6.21899Z" fill="#FF4F2B"/>
</g>
<defs>
<clipPath id="clip0_135_328">
<rect width="164.836" height="30" fill="white" transform="translate(3 6)"/>
</clipPath>
</defs>
</svg>
