<svg width="42" height="42" viewBox="0 0 42 42" fill="none" xmlns="http://www.w3.org/2000/svg">
<g clip-path="url(#clip0_138_290)">
<rect width="42" height="42" fill="white"/>
<g clip-path="url(#clip1_138_290)">
<path d="M22.3586 35.5471C21.88 35.5942 21.3989 35.6174 20.9182 35.6174C20.4376 35.6174 19.9571 35.5942 19.4788 35.5471L20.095 29.2795H21.7415L22.3586 35.5471ZM19.5344 25.4788L16.6506 34.9846C16.1904 34.845 15.7375 34.6823 15.2932 34.4983C14.8493 34.3144 14.4144 34.1086 13.9905 33.8821L18.6721 25.1213L19.5344 25.4788ZM27.8469 33.8821C27.4227 34.1088 26.9867 34.3142 26.5422 34.4983C26.0982 34.6823 25.6457 34.845 25.1858 34.9846L22.301 25.4797L23.1643 25.1223L27.8469 33.8821ZM15.5872 27.4124L11.592 32.2805C11.2202 31.9753 10.8638 31.6519 10.5237 31.3118C10.1839 30.9719 9.86078 30.6158 9.55591 30.2444L14.4231 26.2483L15.5872 27.4124ZM32.2805 30.2444C31.9753 30.6162 31.6516 30.9729 31.3118 31.3127C30.9719 31.6526 30.6158 31.9756 30.2444 32.2805L26.2483 27.4124L27.4124 26.2483L32.2805 30.2444ZM69.4983 16.4456C70.4998 16.4456 71.3351 16.613 72.1096 16.9114C72.8876 17.2285 73.5257 17.6577 74.0256 18.1985C74.5239 18.7393 75.0699 19.6722 75.0461 20.8098L71.8284 20.8284H71.7258C71.6229 20.2502 71.3638 19.8212 70.9514 19.5227C70.5358 19.2432 70.0564 19.095 69.5032 19.095C68.9845 19.095 68.5662 19.2071 68.2473 19.4495C67.9306 19.6917 67.7679 19.9899 67.7678 20.3254C67.7678 20.6239 67.8872 20.8669 68.1321 21.0344C68.3727 21.2206 68.7164 21.3702 69.1653 21.5002L71.2092 21.9661C72.056 22.171 72.7627 22.4129 73.3333 22.6926C73.9038 22.9537 74.365 23.3647 74.717 23.9055C75.0698 24.4649 75.2463 25.1919 75.2463 26.1057C75.2463 26.8701 75.0155 27.5797 74.5471 28.2327C74.0812 28.8857 73.4356 29.4079 72.6057 29.7991C71.7793 30.191 70.8473 30.3957 69.8118 30.3958C68.6759 30.3958 67.6647 30.2095 66.7864 29.8176H66.7805L66.4602 29.6643C65.7339 29.2931 65.1546 28.8237 64.7239 28.2688C64.2317 27.6344 63.7366 26.4227 63.7366 25.4153L66.9885 25.3967H67.0911C67.194 25.8814 67.3697 26.2925 67.6213 26.6096C67.8712 26.9266 68.1916 27.1688 68.5774 27.3176C68.965 27.4664 69.3741 27.5597 69.8059 27.5598C70.1842 27.5598 70.5223 27.4856 70.8157 27.3743C71.1082 27.2433 71.3347 27.094 71.4895 26.8704C71.6441 26.6655 71.7219 26.4232 71.7219 26.1624C71.7219 25.8265 71.6094 25.5655 71.384 25.3606C71.1587 25.1744 70.8249 25.006 70.3752 24.9133L67.8928 24.2971C67.257 24.1296 66.6789 23.9428 66.1604 23.6819C65.6434 23.4396 65.205 23.0661 64.8411 22.5627C64.4798 22.0594 64.2991 21.4063 64.2991 20.6233C64.2991 19.8402 64.5196 19.1306 64.9592 18.5159C65.3996 17.8818 66.0166 17.3783 66.8088 17.0051C67.6012 16.6319 68.4967 16.4456 69.4983 16.4456ZM136.23 16.4456C137.988 16.4456 139.367 16.8382 140.368 17.6213C141.368 18.4231 142.041 19.3927 142.384 20.5676C142.728 21.7425 142.833 22.9352 142.696 24.1848H133.069C133.13 24.7009 133.25 25.1584 133.436 25.5657H133.439C133.713 26.1812 134.117 26.647 134.641 26.9641C135.169 27.2811 135.783 27.4485 136.49 27.4485C137.198 27.4485 137.947 27.2991 138.454 27.0569V27.0579C139.004 26.7968 139.488 26.2182 139.613 25.5286H142.718C142.718 27.1322 141.617 28.6064 140.538 29.3147C139.461 30.0417 138.075 30.3957 136.387 30.3958C135.095 30.3958 133.925 30.0972 132.881 29.5002C131.837 28.9033 131.026 28.0641 130.449 27.0012C129.871 25.9385 129.583 24.7263 129.583 23.4026C129.583 22.0787 129.869 20.8844 130.436 19.8215C131.006 18.7587 131.793 17.938 132.802 17.3411C133.81 16.7442 134.954 16.4456 136.23 16.4456ZM98.4807 24.7024C98.4807 25.2616 98.5773 25.7461 98.7659 26.1379C98.9563 26.5299 99.2417 26.8472 99.6184 27.053C99.995 27.2577 100.437 27.3508 100.937 27.3508C101.386 27.3508 101.807 27.2387 102.204 26.9778C102.6 26.7355 102.938 26.3809 103.214 25.9524C103.488 25.5239 103.669 25.0382 103.756 24.4788V16.7063H107.278V30.134H104.485L103.76 28.5452C103.332 29.1233 102.794 29.5894 102.156 29.9065C101.519 30.2237 100.811 30.3909 100.033 30.3909C99.0848 30.3908 98.227 30.186 97.4602 29.7942C96.6916 29.3844 96.083 28.8247 95.634 28.0969C95.1868 27.3887 94.9612 26.5493 94.9612 25.5979V16.7014H98.4807V24.7024ZM81.1663 16.7053H84.3235V19.634H81.1663V25.7317C81.1663 26.1977 81.5654 26.5901 82.0374 26.5901L82.0383 26.592H84.3245V30.136H82.0383C79.6065 30.136 77.6467 28.1578 77.6467 25.7336V19.635H75.4475V16.7073C76.1898 16.7073 76.7214 16.6324 77.0403 16.4836C77.3591 16.334 77.5728 16.0359 77.6868 15.6252C77.7981 15.1959 77.8547 14.5064 77.8547 13.5364H81.1663V16.7053ZM162.281 13.5364V16.7053H165.438V19.634H162.281V25.7317C162.281 26.1977 162.68 26.5901 163.152 26.5901L163.153 26.592H165.439V30.136H163.153C160.721 30.136 158.76 28.1578 158.76 25.7336V19.635H156.562V16.7073C157.304 16.7073 157.836 16.6324 158.155 16.4836C158.473 16.334 158.687 16.0359 158.801 15.6252C158.912 15.1959 158.969 14.5064 158.969 13.5364H162.281ZM92.9368 16.6624C93.367 16.6624 93.6533 16.6817 93.7893 16.7004V20.094C92.8064 19.9069 91.9761 19.9634 91.3069 20.2805C90.6353 20.579 90.1207 21.0764 89.7678 21.6545C89.5127 22.072 89.3192 22.5181 89.1848 22.9866V30.135H85.6672V16.7073H89.1848V18.8372C89.3294 18.5948 89.4966 18.3671 89.6887 18.1545H89.6897C90.1293 17.6699 90.6389 17.2964 91.217 17.0354C91.7213 16.8071 92.2225 16.6933 92.7219 16.6682L92.9368 16.6624ZM48.9641 30.134H45.2131V11.4846H48.9641V30.134ZM57.6184 16.4446C58.5672 16.4446 59.4248 16.6504 60.1917 17.0422C60.9603 17.4521 61.5689 18.0116 62.0178 18.7395C62.4649 19.4477 62.6907 20.2872 62.6907 21.2385V30.134H59.1721V22.1331C59.1721 21.5738 59.0747 21.0894 58.886 20.6975C58.6956 20.3056 58.4109 19.9892 58.0344 19.7834C57.6577 19.5785 57.2151 19.4846 56.7151 19.4846C56.2654 19.4846 55.8445 19.5968 55.4475 19.8577C55.0521 20.1 54.7141 20.4555 54.4377 20.884C54.1642 21.3123 53.9833 21.7976 53.8958 22.3567V30.134H50.3743V16.7063H53.1672L53.8918 18.2913C54.3204 17.7131 54.8586 17.2471 55.4963 16.9299C56.134 16.6129 56.8405 16.4446 57.6184 16.4446ZM123.874 16.4641C124.771 16.4641 125.581 16.6502 126.305 17.0422C127.028 17.4342 127.594 17.9748 128 18.6643C128.405 19.3734 128.608 20.1568 128.608 21.0334V30.134H125.09V22.1145C125.09 21.1453 124.887 20.4547 124.483 20.0627C124.078 19.6708 123.567 19.4847 122.944 19.4846C122.32 19.4846 121.736 19.7459 121.236 20.2678C120.736 20.7899 120.424 21.4805 120.305 22.301V30.134H116.785V22.1145C116.785 21.1453 116.586 20.4547 116.189 20.0627C115.793 19.6708 115.284 19.4846 114.661 19.4846C113.988 19.4847 113.408 19.7645 112.916 20.3049C112.422 20.8643 112.116 21.5363 111.998 22.3567V30.134H108.481V16.7063H112V18.3098C112.431 17.7503 112.968 17.3029 113.606 16.967C114.243 16.6126 114.968 16.4642 115.778 16.4641C116.708 16.4641 117.514 16.6502 118.196 17.0422C118.878 17.4342 119.399 17.9746 119.76 18.7014C120.21 17.9371 120.795 17.3587 121.521 17.0042C122.246 16.6309 123.029 16.4641 123.874 16.4641ZM150.999 16.4446C151.948 16.4446 152.806 16.6503 153.573 17.0422C154.341 17.4521 154.95 18.0116 155.399 18.7395C155.846 19.4477 156.072 20.2872 156.072 21.2385V30.134H152.552V22.1331C152.552 21.5738 152.456 21.0894 152.267 20.6975C152.076 20.3055 151.791 19.9892 151.414 19.7834C151.038 19.5786 150.596 19.4846 150.096 19.4846C149.646 19.4846 149.225 19.5968 148.828 19.8577C148.433 20.1 148.095 20.4555 147.819 20.884C147.545 21.3124 147.364 21.7976 147.277 22.3567V30.134H143.755V16.7063H146.547L147.273 18.2913C147.701 17.7132 148.239 17.2471 148.876 16.9299C149.514 16.6128 150.221 16.4446 150.999 16.4446ZM170.452 30.134H166.702V11.4846H170.452V30.134ZM16.7151 23.1643L7.95435 27.8469C7.7277 27.4228 7.52215 26.9875 7.33813 26.5432C7.15406 26.099 6.99243 25.6458 6.85278 25.1858L16.3577 22.302L16.7151 23.1643ZM34.9846 25.1858C34.845 25.6462 34.6824 26.0997 34.4983 26.5442C34.3144 26.9881 34.1086 27.4231 33.8821 27.8469L25.1223 23.1653L25.4797 22.302L34.9846 25.1858ZM12.5569 20.095V21.7415L6.28931 22.3586C6.24223 21.8801 6.21901 21.3988 6.21899 20.9182C6.21899 20.4374 6.24222 19.9562 6.28931 19.4778L12.5569 20.095ZM35.5295 19.4749C35.5768 19.9535 35.6008 20.4346 35.6008 20.9153C35.6008 21.3959 35.5766 21.8764 35.5295 22.3547L29.262 21.7385V20.092L35.5295 19.4749ZM136.23 19.094C135.539 19.094 134.952 19.2612 134.469 19.5969H134.47C133.987 19.9328 133.625 20.4177 133.383 21.0706C133.307 21.2704 133.244 21.4825 133.193 21.7053H139.024C138.991 21.202 138.848 20.7545 138.608 20.3625C138.367 19.9707 138.043 19.6535 137.638 19.4299C137.233 19.2063 136.761 19.094 136.23 19.094ZM33.8821 13.9895C34.1087 14.4136 34.3143 14.8489 34.4983 15.2932C34.6824 15.7374 34.845 16.1907 34.9846 16.6506L25.4797 19.5354L25.1223 18.6721L33.8821 13.9895ZM16.7151 18.6711L16.3577 19.5344L6.85278 16.6506C6.99242 16.1903 7.15407 15.7367 7.33813 15.2922C7.52205 14.8482 7.72777 14.4134 7.95435 13.9895L16.7151 18.6711ZM25.1868 6.85181C25.647 6.9914 26.0999 7.15415 26.5442 7.33813C26.9882 7.52206 27.4239 7.72776 27.8479 7.95435L23.1663 16.7151L22.303 16.3577L25.1868 6.85181ZM19.5354 16.3567L18.6721 16.7141L13.9905 7.95435C14.4146 7.7277 14.8499 7.52215 15.2942 7.33813C15.7382 7.15411 16.1908 6.99143 16.6506 6.85181L19.5354 16.3567ZM15.5881 14.4241L14.4241 15.5881L9.55591 11.593C9.86116 11.2211 10.1844 10.8639 10.5247 10.5237C10.8646 10.1837 11.2215 9.86088 11.593 9.55591L15.5881 14.4241ZM30.2444 9.55591C30.6164 9.86118 30.9735 10.1844 31.3137 10.5247C31.6537 10.8646 31.9765 11.2215 32.2815 11.593L27.4133 15.5881L26.2493 14.4241L30.2444 9.55591ZM20.9192 6.21899C21.3999 6.219 21.8803 6.24222 22.3586 6.28931L21.7415 12.5569H20.0959L19.4788 6.28931C19.9573 6.24224 20.4385 6.21899 20.9192 6.21899Z" fill="#FF4F2B"/>
</g>
</g>
<defs>
<clipPath id="clip0_138_290">
<rect width="42" height="42" fill="white"/>
</clipPath>
<clipPath id="clip1_138_290">
<rect width="164.836" height="30" fill="white" transform="translate(6 6)"/>
</clipPath>
</defs>
</svg>
